G04 #@! TF.GenerationSoftware,KiCad,Pcbnew,(5.1.4)-1*
G04 #@! TF.CreationDate,2020-03-20T01:19:46-05:00*
G04 #@! TF.ProjectId,MAX31850 Breakout,4d415833-3138-4353-9020-427265616b6f,rev?*
G04 #@! TF.SameCoordinates,Original*
G04 #@! TF.FileFunction,Soldermask,Top*
G04 #@! TF.FilePolarity,Negative*
%FSLAX46Y46*%
G04 Gerber Fmt 4.6, Leading zero omitted, Abs format (unit mm)*
G04 Created by KiCad (PCBNEW (5.1.4)-1) date 2020-03-20 01:19:46*
%MOMM*%
%LPD*%
G04 APERTURE LIST*
%ADD10C,0.100000*%
G04 APERTURE END LIST*
D10*
G36*
X52894591Y-74598585D02*
G01*
X52928569Y-74608893D01*
X52959890Y-74625634D01*
X52987339Y-74648161D01*
X53009866Y-74675610D01*
X53026607Y-74706931D01*
X53036915Y-74740909D01*
X53041000Y-74782390D01*
X53041000Y-75458610D01*
X53036915Y-75500091D01*
X53026607Y-75534069D01*
X53009866Y-75565390D01*
X52987339Y-75592839D01*
X52959890Y-75615366D01*
X52928569Y-75632107D01*
X52894591Y-75642415D01*
X52853110Y-75646500D01*
X52251890Y-75646500D01*
X52210409Y-75642415D01*
X52176431Y-75632107D01*
X52145110Y-75615366D01*
X52117661Y-75592839D01*
X52095134Y-75565390D01*
X52078393Y-75534069D01*
X52068085Y-75500091D01*
X52064000Y-75458610D01*
X52064000Y-74782390D01*
X52068085Y-74740909D01*
X52078393Y-74706931D01*
X52095134Y-74675610D01*
X52117661Y-74648161D01*
X52145110Y-74625634D01*
X52176431Y-74608893D01*
X52210409Y-74598585D01*
X52251890Y-74594500D01*
X52853110Y-74594500D01*
X52894591Y-74598585D01*
X52894591Y-74598585D01*
G37*
G36*
X54469591Y-74598585D02*
G01*
X54503569Y-74608893D01*
X54534890Y-74625634D01*
X54562339Y-74648161D01*
X54584866Y-74675610D01*
X54601607Y-74706931D01*
X54611915Y-74740909D01*
X54616000Y-74782390D01*
X54616000Y-75458610D01*
X54611915Y-75500091D01*
X54601607Y-75534069D01*
X54584866Y-75565390D01*
X54562339Y-75592839D01*
X54534890Y-75615366D01*
X54503569Y-75632107D01*
X54469591Y-75642415D01*
X54428110Y-75646500D01*
X53826890Y-75646500D01*
X53785409Y-75642415D01*
X53751431Y-75632107D01*
X53720110Y-75615366D01*
X53692661Y-75592839D01*
X53670134Y-75565390D01*
X53653393Y-75534069D01*
X53643085Y-75500091D01*
X53639000Y-75458610D01*
X53639000Y-74782390D01*
X53643085Y-74740909D01*
X53653393Y-74706931D01*
X53670134Y-74675610D01*
X53692661Y-74648161D01*
X53720110Y-74625634D01*
X53751431Y-74608893D01*
X53785409Y-74598585D01*
X53826890Y-74594500D01*
X54428110Y-74594500D01*
X54469591Y-74598585D01*
X54469591Y-74598585D01*
G37*
G36*
X51497091Y-74661585D02*
G01*
X51531069Y-74671893D01*
X51562390Y-74688634D01*
X51589839Y-74711161D01*
X51612366Y-74738610D01*
X51629107Y-74769931D01*
X51639415Y-74803909D01*
X51643500Y-74845390D01*
X51643500Y-75446610D01*
X51639415Y-75488091D01*
X51629107Y-75522069D01*
X51612366Y-75553390D01*
X51589839Y-75580839D01*
X51562390Y-75603366D01*
X51531069Y-75620107D01*
X51497091Y-75630415D01*
X51455610Y-75634500D01*
X50779390Y-75634500D01*
X50737909Y-75630415D01*
X50703931Y-75620107D01*
X50672610Y-75603366D01*
X50645161Y-75580839D01*
X50622634Y-75553390D01*
X50605893Y-75522069D01*
X50595585Y-75488091D01*
X50591500Y-75446610D01*
X50591500Y-74845390D01*
X50595585Y-74803909D01*
X50605893Y-74769931D01*
X50622634Y-74738610D01*
X50645161Y-74711161D01*
X50672610Y-74688634D01*
X50703931Y-74671893D01*
X50737909Y-74661585D01*
X50779390Y-74657500D01*
X51455610Y-74657500D01*
X51497091Y-74661585D01*
X51497091Y-74661585D01*
G37*
G36*
X44780572Y-72511418D02*
G01*
X44886673Y-72555366D01*
X45026439Y-72613259D01*
X45137828Y-72687687D01*
X45247711Y-72761109D01*
X45435891Y-72949289D01*
X45583742Y-73170563D01*
X45685582Y-73416428D01*
X45737500Y-73677437D01*
X45737500Y-73943563D01*
X45715372Y-74054807D01*
X45685582Y-74204572D01*
X45583741Y-74450439D01*
X45546826Y-74505686D01*
X45442251Y-74662193D01*
X45435890Y-74671712D01*
X45247712Y-74859890D01*
X45026439Y-75007741D01*
X45026438Y-75007742D01*
X45026437Y-75007742D01*
X44780572Y-75109582D01*
X44519563Y-75161500D01*
X44253437Y-75161500D01*
X43992428Y-75109582D01*
X43746563Y-75007742D01*
X43746562Y-75007742D01*
X43746561Y-75007741D01*
X43525288Y-74859890D01*
X43337110Y-74671712D01*
X43330750Y-74662193D01*
X43226174Y-74505686D01*
X43189259Y-74450439D01*
X43087418Y-74204572D01*
X43057628Y-74054807D01*
X43035500Y-73943563D01*
X43035500Y-73677437D01*
X43087418Y-73416428D01*
X43189258Y-73170563D01*
X43337109Y-72949289D01*
X43525289Y-72761109D01*
X43635172Y-72687687D01*
X43746561Y-72613259D01*
X43886328Y-72555366D01*
X43992428Y-72511418D01*
X44253437Y-72459500D01*
X44519563Y-72459500D01*
X44780572Y-72511418D01*
X44780572Y-72511418D01*
G37*
G36*
X58847943Y-72971019D02*
G01*
X58914127Y-72977537D01*
X59083966Y-73029057D01*
X59240491Y-73112722D01*
X59269051Y-73136161D01*
X59377686Y-73225314D01*
X59460931Y-73326750D01*
X59490278Y-73362509D01*
X59573943Y-73519034D01*
X59625463Y-73688873D01*
X59642859Y-73865500D01*
X59625463Y-74042127D01*
X59573943Y-74211966D01*
X59490278Y-74368491D01*
X59460948Y-74404229D01*
X59377686Y-74505686D01*
X59276229Y-74588948D01*
X59240491Y-74618278D01*
X59083966Y-74701943D01*
X58914127Y-74753463D01*
X58847943Y-74759981D01*
X58781760Y-74766500D01*
X58693240Y-74766500D01*
X58627057Y-74759981D01*
X58560873Y-74753463D01*
X58391034Y-74701943D01*
X58234509Y-74618278D01*
X58198771Y-74588948D01*
X58097314Y-74505686D01*
X58014052Y-74404229D01*
X57984722Y-74368491D01*
X57901057Y-74211966D01*
X57849537Y-74042127D01*
X57832141Y-73865500D01*
X57849537Y-73688873D01*
X57901057Y-73519034D01*
X57984722Y-73362509D01*
X58014069Y-73326750D01*
X58097314Y-73225314D01*
X58205949Y-73136161D01*
X58234509Y-73112722D01*
X58391034Y-73029057D01*
X58560873Y-72977537D01*
X58627057Y-72971019D01*
X58693240Y-72964500D01*
X58781760Y-72964500D01*
X58847943Y-72971019D01*
X58847943Y-72971019D01*
G37*
G36*
X51497091Y-73086585D02*
G01*
X51531069Y-73096893D01*
X51562390Y-73113634D01*
X51589839Y-73136161D01*
X51612366Y-73163610D01*
X51629107Y-73194931D01*
X51639415Y-73228909D01*
X51643500Y-73270390D01*
X51643500Y-73871610D01*
X51639415Y-73913091D01*
X51629107Y-73947069D01*
X51612366Y-73978390D01*
X51589839Y-74005839D01*
X51562390Y-74028366D01*
X51531069Y-74045107D01*
X51497091Y-74055415D01*
X51455610Y-74059500D01*
X50779390Y-74059500D01*
X50737909Y-74055415D01*
X50703931Y-74045107D01*
X50672610Y-74028366D01*
X50645161Y-74005839D01*
X50622634Y-73978390D01*
X50605893Y-73947069D01*
X50595585Y-73913091D01*
X50591500Y-73871610D01*
X50591500Y-73270390D01*
X50595585Y-73228909D01*
X50605893Y-73194931D01*
X50622634Y-73163610D01*
X50645161Y-73136161D01*
X50672610Y-73113634D01*
X50703931Y-73096893D01*
X50737909Y-73086585D01*
X50779390Y-73082500D01*
X51455610Y-73082500D01*
X51497091Y-73086585D01*
X51497091Y-73086585D01*
G37*
G36*
X50036591Y-71613585D02*
G01*
X50070569Y-71623893D01*
X50101890Y-71640634D01*
X50129339Y-71663161D01*
X50151866Y-71690610D01*
X50168607Y-71721931D01*
X50178915Y-71755909D01*
X50183000Y-71797390D01*
X50183000Y-72398610D01*
X50178915Y-72440091D01*
X50168607Y-72474069D01*
X50151866Y-72505390D01*
X50129339Y-72532839D01*
X50101890Y-72555366D01*
X50070569Y-72572107D01*
X50036591Y-72582415D01*
X49995110Y-72586500D01*
X49318890Y-72586500D01*
X49277409Y-72582415D01*
X49243431Y-72572107D01*
X49212110Y-72555366D01*
X49184661Y-72532839D01*
X49162134Y-72505390D01*
X49145393Y-72474069D01*
X49135085Y-72440091D01*
X49131000Y-72398610D01*
X49131000Y-71797390D01*
X49135085Y-71755909D01*
X49145393Y-71721931D01*
X49162134Y-71690610D01*
X49184661Y-71663161D01*
X49212110Y-71640634D01*
X49243431Y-71623893D01*
X49277409Y-71613585D01*
X49318890Y-71609500D01*
X49995110Y-71609500D01*
X50036591Y-71613585D01*
X50036591Y-71613585D01*
G37*
G36*
X56658500Y-72511500D02*
G01*
X51926500Y-72511500D01*
X51926500Y-70109500D01*
X56658500Y-70109500D01*
X56658500Y-72511500D01*
X56658500Y-72511500D01*
G37*
G36*
X58847943Y-70431019D02*
G01*
X58914127Y-70437537D01*
X59083966Y-70489057D01*
X59240491Y-70572722D01*
X59276229Y-70602052D01*
X59377686Y-70685314D01*
X59444928Y-70767250D01*
X59490278Y-70822509D01*
X59573943Y-70979034D01*
X59625463Y-71148873D01*
X59642859Y-71325500D01*
X59625463Y-71502127D01*
X59576614Y-71663161D01*
X59573942Y-71671968D01*
X59549309Y-71718052D01*
X59490278Y-71828491D01*
X59469548Y-71853750D01*
X59377686Y-71965686D01*
X59276229Y-72048948D01*
X59240491Y-72078278D01*
X59083966Y-72161943D01*
X58914127Y-72213463D01*
X58847942Y-72219982D01*
X58781760Y-72226500D01*
X58693240Y-72226500D01*
X58627058Y-72219982D01*
X58560873Y-72213463D01*
X58391034Y-72161943D01*
X58234509Y-72078278D01*
X58198771Y-72048948D01*
X58097314Y-71965686D01*
X58005452Y-71853750D01*
X57984722Y-71828491D01*
X57925691Y-71718052D01*
X57901058Y-71671968D01*
X57898386Y-71663161D01*
X57849537Y-71502127D01*
X57832141Y-71325500D01*
X57849537Y-71148873D01*
X57901057Y-70979034D01*
X57984722Y-70822509D01*
X58030072Y-70767250D01*
X58097314Y-70685314D01*
X58198771Y-70602052D01*
X58234509Y-70572722D01*
X58391034Y-70489057D01*
X58560873Y-70437537D01*
X58627057Y-70431019D01*
X58693240Y-70424500D01*
X58781760Y-70424500D01*
X58847943Y-70431019D01*
X58847943Y-70431019D01*
G37*
G36*
X50036591Y-70038585D02*
G01*
X50070569Y-70048893D01*
X50101890Y-70065634D01*
X50129339Y-70088161D01*
X50151866Y-70115610D01*
X50168607Y-70146931D01*
X50178915Y-70180909D01*
X50183000Y-70222390D01*
X50183000Y-70823610D01*
X50178915Y-70865091D01*
X50168607Y-70899069D01*
X50151866Y-70930390D01*
X50129339Y-70957839D01*
X50101890Y-70980366D01*
X50070569Y-70997107D01*
X50036591Y-71007415D01*
X49995110Y-71011500D01*
X49318890Y-71011500D01*
X49277409Y-71007415D01*
X49243431Y-70997107D01*
X49212110Y-70980366D01*
X49184661Y-70957839D01*
X49162134Y-70930390D01*
X49145393Y-70899069D01*
X49135085Y-70865091D01*
X49131000Y-70823610D01*
X49131000Y-70222390D01*
X49135085Y-70180909D01*
X49145393Y-70146931D01*
X49162134Y-70115610D01*
X49184661Y-70088161D01*
X49212110Y-70065634D01*
X49243431Y-70048893D01*
X49277409Y-70038585D01*
X49318890Y-70034500D01*
X49995110Y-70034500D01*
X50036591Y-70038585D01*
X50036591Y-70038585D01*
G37*
G36*
X45737500Y-70161500D02*
G01*
X43035500Y-70161500D01*
X43035500Y-67459500D01*
X45737500Y-67459500D01*
X45737500Y-70161500D01*
X45737500Y-70161500D01*
G37*
G36*
X59638500Y-69686500D02*
G01*
X57836500Y-69686500D01*
X57836500Y-67884500D01*
X59638500Y-67884500D01*
X59638500Y-69686500D01*
X59638500Y-69686500D01*
G37*
M02*
