G04 #@! TF.GenerationSoftware,KiCad,Pcbnew,(5.1.4)-1*
G04 #@! TF.CreationDate,2020-03-20T01:19:45-05:00*
G04 #@! TF.ProjectId,MAX31850 Breakout,4d415833-3138-4353-9020-427265616b6f,rev?*
G04 #@! TF.SameCoordinates,Original*
G04 #@! TF.FileFunction,Legend,Top*
G04 #@! TF.FilePolarity,Positive*
%FSLAX46Y46*%
G04 Gerber Fmt 4.6, Leading zero omitted, Abs format (unit mm)*
G04 Created by KiCad (PCBNEW (5.1.4)-1) date 2020-03-20 01:19:45*
%MOMM*%
%LPD*%
G04 APERTURE LIST*
%ADD10C,0.150000*%
%ADD11C,0.120000*%
G04 APERTURE END LIST*
D10*
X54483095Y-68524500D02*
X54387857Y-68476880D01*
X54245000Y-68476880D01*
X54102142Y-68524500D01*
X54006904Y-68619738D01*
X53959285Y-68714976D01*
X53911666Y-68905452D01*
X53911666Y-69048309D01*
X53959285Y-69238785D01*
X54006904Y-69334023D01*
X54102142Y-69429261D01*
X54245000Y-69476880D01*
X54340238Y-69476880D01*
X54483095Y-69429261D01*
X54530714Y-69381642D01*
X54530714Y-69048309D01*
X54340238Y-69048309D01*
X54959285Y-69476880D02*
X54959285Y-68476880D01*
X55530714Y-69476880D01*
X55530714Y-68476880D01*
X56006904Y-69476880D02*
X56006904Y-68476880D01*
X56245000Y-68476880D01*
X56387857Y-68524500D01*
X56483095Y-68619738D01*
X56530714Y-68714976D01*
X56578333Y-68905452D01*
X56578333Y-69048309D01*
X56530714Y-69238785D01*
X56483095Y-69334023D01*
X56387857Y-69429261D01*
X56245000Y-69476880D01*
X56006904Y-69476880D01*
X54522785Y-74747380D02*
X54522785Y-73747380D01*
X54760880Y-73747380D01*
X54903738Y-73795000D01*
X54998976Y-73890238D01*
X55046595Y-73985476D01*
X55094214Y-74175952D01*
X55094214Y-74318809D01*
X55046595Y-74509285D01*
X54998976Y-74604523D01*
X54903738Y-74699761D01*
X54760880Y-74747380D01*
X54522785Y-74747380D01*
X56189452Y-74842619D02*
X56094214Y-74795000D01*
X55998976Y-74699761D01*
X55856119Y-74556904D01*
X55760880Y-74509285D01*
X55665642Y-74509285D01*
X55713261Y-74747380D02*
X55618023Y-74699761D01*
X55522785Y-74604523D01*
X55475166Y-74414047D01*
X55475166Y-74080714D01*
X55522785Y-73890238D01*
X55618023Y-73795000D01*
X55713261Y-73747380D01*
X55903738Y-73747380D01*
X55998976Y-73795000D01*
X56094214Y-73890238D01*
X56141833Y-74080714D01*
X56141833Y-74414047D01*
X56094214Y-74604523D01*
X55998976Y-74699761D01*
X55903738Y-74747380D01*
X55713261Y-74747380D01*
X54070404Y-67079880D02*
X54689452Y-67079880D01*
X54356119Y-67460833D01*
X54498976Y-67460833D01*
X54594214Y-67508452D01*
X54641833Y-67556071D01*
X54689452Y-67651309D01*
X54689452Y-67889404D01*
X54641833Y-67984642D01*
X54594214Y-68032261D01*
X54498976Y-68079880D01*
X54213261Y-68079880D01*
X54118023Y-68032261D01*
X54070404Y-67984642D01*
X54975166Y-67079880D02*
X55308500Y-68079880D01*
X55641833Y-67079880D01*
X55879928Y-67079880D02*
X56498976Y-67079880D01*
X56165642Y-67460833D01*
X56308500Y-67460833D01*
X56403738Y-67508452D01*
X56451357Y-67556071D01*
X56498976Y-67651309D01*
X56498976Y-67889404D01*
X56451357Y-67984642D01*
X56403738Y-68032261D01*
X56308500Y-68079880D01*
X56022785Y-68079880D01*
X55927547Y-68032261D01*
X55879928Y-67984642D01*
X48752238Y-73620380D02*
X49323666Y-73620380D01*
X49037952Y-74620380D02*
X49037952Y-73620380D01*
X49657000Y-74239428D02*
X50418904Y-74239428D01*
X50037952Y-74620380D02*
X50037952Y-73858476D01*
X48942738Y-68095880D02*
X49514166Y-68095880D01*
X49228452Y-69095880D02*
X49228452Y-68095880D01*
X49847500Y-68714928D02*
X50609404Y-68714928D01*
D11*
X53292500Y-69690500D02*
X56292500Y-69690500D01*
X52292500Y-72930500D02*
X56292500Y-72930500D01*
X53177221Y-75630500D02*
X53502779Y-75630500D01*
X53177221Y-74610500D02*
X53502779Y-74610500D01*
X57407500Y-67455500D02*
X58737500Y-67455500D01*
X57407500Y-68785500D02*
X57407500Y-67455500D01*
X57407500Y-70055500D02*
X60067500Y-70055500D01*
X60067500Y-70055500D02*
X60067500Y-75195500D01*
X57407500Y-70055500D02*
X57407500Y-75195500D01*
X57407500Y-75195500D02*
X60067500Y-75195500D01*
X39086500Y-66010500D02*
X39086500Y-66410500D01*
X39726500Y-66010500D02*
X39086500Y-66010500D01*
X43394500Y-72552500D02*
X42998500Y-72157500D01*
X46040500Y-75198500D02*
X45660500Y-74818500D01*
X43112500Y-72803500D02*
X42732500Y-72423500D01*
X45774500Y-75464500D02*
X45378500Y-75069500D01*
X43105500Y-67262500D02*
X42998500Y-67156500D01*
X46040500Y-70198500D02*
X45933500Y-70091500D01*
X42839500Y-67528500D02*
X42732500Y-67422500D01*
X45774500Y-70464500D02*
X45667500Y-70357500D01*
X48446500Y-76370500D02*
X39326500Y-76370500D01*
X48446500Y-66250500D02*
X39326500Y-66250500D01*
X39326500Y-66250500D02*
X39326500Y-76370500D01*
X48446500Y-66250500D02*
X48446500Y-76370500D01*
X40886500Y-66250500D02*
X40886500Y-76370500D01*
X39786500Y-66250500D02*
X39786500Y-76370500D01*
X46566500Y-73810500D02*
G75*
G03X46566500Y-73810500I-2180000J0D01*
G01*
X46566500Y-68810500D02*
G75*
G03X46566500Y-68810500I-2180000J0D01*
G01*
X50607500Y-74195721D02*
X50607500Y-74521279D01*
X51627500Y-74195721D02*
X51627500Y-74521279D01*
X50167000Y-71473279D02*
X50167000Y-71147721D01*
X49147000Y-71473279D02*
X49147000Y-71147721D01*
M02*
