G04 #@! TF.GenerationSoftware,KiCad,Pcbnew,(5.1.4)-1*
G04 #@! TF.CreationDate,2020-03-20T01:19:45-05:00*
G04 #@! TF.ProjectId,MAX31850 Breakout,4d415833-3138-4353-9020-427265616b6f,rev?*
G04 #@! TF.SameCoordinates,Original*
G04 #@! TF.FileFunction,Copper,L1,Top*
G04 #@! TF.FilePolarity,Positive*
%FSLAX46Y46*%
G04 Gerber Fmt 4.6, Leading zero omitted, Abs format (unit mm)*
G04 Created by KiCad (PCBNEW (5.1.4)-1) date 2020-03-20 01:19:45*
%MOMM*%
%LPD*%
G04 APERTURE LIST*
%ADD10R,0.790000X0.300000*%
%ADD11R,2.600000X2.300000*%
%ADD12C,0.100000*%
%ADD13C,0.875000*%
%ADD14O,1.700000X1.700000*%
%ADD15R,1.700000X1.700000*%
%ADD16C,2.600000*%
%ADD17R,2.600000X2.600000*%
%ADD18C,0.800000*%
%ADD19C,0.304800*%
%ADD20C,0.250000*%
%ADD21C,0.254000*%
G04 APERTURE END LIST*
D10*
X52372500Y-70310500D03*
X52372500Y-70810500D03*
X52372500Y-71310500D03*
X52372500Y-71810500D03*
X52372500Y-72310500D03*
X56212500Y-72310500D03*
X56212500Y-71810500D03*
X56212500Y-71310500D03*
X56212500Y-70810500D03*
X56212500Y-70310500D03*
D11*
X54292500Y-71310500D03*
D12*
G36*
X54367691Y-74646553D02*
G01*
X54388926Y-74649703D01*
X54409750Y-74654919D01*
X54429962Y-74662151D01*
X54449368Y-74671330D01*
X54467781Y-74682366D01*
X54485024Y-74695154D01*
X54500930Y-74709570D01*
X54515346Y-74725476D01*
X54528134Y-74742719D01*
X54539170Y-74761132D01*
X54548349Y-74780538D01*
X54555581Y-74800750D01*
X54560797Y-74821574D01*
X54563947Y-74842809D01*
X54565000Y-74864250D01*
X54565000Y-75376750D01*
X54563947Y-75398191D01*
X54560797Y-75419426D01*
X54555581Y-75440250D01*
X54548349Y-75460462D01*
X54539170Y-75479868D01*
X54528134Y-75498281D01*
X54515346Y-75515524D01*
X54500930Y-75531430D01*
X54485024Y-75545846D01*
X54467781Y-75558634D01*
X54449368Y-75569670D01*
X54429962Y-75578849D01*
X54409750Y-75586081D01*
X54388926Y-75591297D01*
X54367691Y-75594447D01*
X54346250Y-75595500D01*
X53908750Y-75595500D01*
X53887309Y-75594447D01*
X53866074Y-75591297D01*
X53845250Y-75586081D01*
X53825038Y-75578849D01*
X53805632Y-75569670D01*
X53787219Y-75558634D01*
X53769976Y-75545846D01*
X53754070Y-75531430D01*
X53739654Y-75515524D01*
X53726866Y-75498281D01*
X53715830Y-75479868D01*
X53706651Y-75460462D01*
X53699419Y-75440250D01*
X53694203Y-75419426D01*
X53691053Y-75398191D01*
X53690000Y-75376750D01*
X53690000Y-74864250D01*
X53691053Y-74842809D01*
X53694203Y-74821574D01*
X53699419Y-74800750D01*
X53706651Y-74780538D01*
X53715830Y-74761132D01*
X53726866Y-74742719D01*
X53739654Y-74725476D01*
X53754070Y-74709570D01*
X53769976Y-74695154D01*
X53787219Y-74682366D01*
X53805632Y-74671330D01*
X53825038Y-74662151D01*
X53845250Y-74654919D01*
X53866074Y-74649703D01*
X53887309Y-74646553D01*
X53908750Y-74645500D01*
X54346250Y-74645500D01*
X54367691Y-74646553D01*
X54367691Y-74646553D01*
G37*
D13*
X54127500Y-75120500D03*
D12*
G36*
X52792691Y-74646553D02*
G01*
X52813926Y-74649703D01*
X52834750Y-74654919D01*
X52854962Y-74662151D01*
X52874368Y-74671330D01*
X52892781Y-74682366D01*
X52910024Y-74695154D01*
X52925930Y-74709570D01*
X52940346Y-74725476D01*
X52953134Y-74742719D01*
X52964170Y-74761132D01*
X52973349Y-74780538D01*
X52980581Y-74800750D01*
X52985797Y-74821574D01*
X52988947Y-74842809D01*
X52990000Y-74864250D01*
X52990000Y-75376750D01*
X52988947Y-75398191D01*
X52985797Y-75419426D01*
X52980581Y-75440250D01*
X52973349Y-75460462D01*
X52964170Y-75479868D01*
X52953134Y-75498281D01*
X52940346Y-75515524D01*
X52925930Y-75531430D01*
X52910024Y-75545846D01*
X52892781Y-75558634D01*
X52874368Y-75569670D01*
X52854962Y-75578849D01*
X52834750Y-75586081D01*
X52813926Y-75591297D01*
X52792691Y-75594447D01*
X52771250Y-75595500D01*
X52333750Y-75595500D01*
X52312309Y-75594447D01*
X52291074Y-75591297D01*
X52270250Y-75586081D01*
X52250038Y-75578849D01*
X52230632Y-75569670D01*
X52212219Y-75558634D01*
X52194976Y-75545846D01*
X52179070Y-75531430D01*
X52164654Y-75515524D01*
X52151866Y-75498281D01*
X52140830Y-75479868D01*
X52131651Y-75460462D01*
X52124419Y-75440250D01*
X52119203Y-75419426D01*
X52116053Y-75398191D01*
X52115000Y-75376750D01*
X52115000Y-74864250D01*
X52116053Y-74842809D01*
X52119203Y-74821574D01*
X52124419Y-74800750D01*
X52131651Y-74780538D01*
X52140830Y-74761132D01*
X52151866Y-74742719D01*
X52164654Y-74725476D01*
X52179070Y-74709570D01*
X52194976Y-74695154D01*
X52212219Y-74682366D01*
X52230632Y-74671330D01*
X52250038Y-74662151D01*
X52270250Y-74654919D01*
X52291074Y-74649703D01*
X52312309Y-74646553D01*
X52333750Y-74645500D01*
X52771250Y-74645500D01*
X52792691Y-74646553D01*
X52792691Y-74646553D01*
G37*
D13*
X52552500Y-75120500D03*
D14*
X58737500Y-73865500D03*
X58737500Y-71325500D03*
D15*
X58737500Y-68785500D03*
D16*
X44386500Y-73810500D03*
D17*
X44386500Y-68810500D03*
D12*
G36*
X51395191Y-74709553D02*
G01*
X51416426Y-74712703D01*
X51437250Y-74717919D01*
X51457462Y-74725151D01*
X51476868Y-74734330D01*
X51495281Y-74745366D01*
X51512524Y-74758154D01*
X51528430Y-74772570D01*
X51542846Y-74788476D01*
X51555634Y-74805719D01*
X51566670Y-74824132D01*
X51575849Y-74843538D01*
X51583081Y-74863750D01*
X51588297Y-74884574D01*
X51591447Y-74905809D01*
X51592500Y-74927250D01*
X51592500Y-75364750D01*
X51591447Y-75386191D01*
X51588297Y-75407426D01*
X51583081Y-75428250D01*
X51575849Y-75448462D01*
X51566670Y-75467868D01*
X51555634Y-75486281D01*
X51542846Y-75503524D01*
X51528430Y-75519430D01*
X51512524Y-75533846D01*
X51495281Y-75546634D01*
X51476868Y-75557670D01*
X51457462Y-75566849D01*
X51437250Y-75574081D01*
X51416426Y-75579297D01*
X51395191Y-75582447D01*
X51373750Y-75583500D01*
X50861250Y-75583500D01*
X50839809Y-75582447D01*
X50818574Y-75579297D01*
X50797750Y-75574081D01*
X50777538Y-75566849D01*
X50758132Y-75557670D01*
X50739719Y-75546634D01*
X50722476Y-75533846D01*
X50706570Y-75519430D01*
X50692154Y-75503524D01*
X50679366Y-75486281D01*
X50668330Y-75467868D01*
X50659151Y-75448462D01*
X50651919Y-75428250D01*
X50646703Y-75407426D01*
X50643553Y-75386191D01*
X50642500Y-75364750D01*
X50642500Y-74927250D01*
X50643553Y-74905809D01*
X50646703Y-74884574D01*
X50651919Y-74863750D01*
X50659151Y-74843538D01*
X50668330Y-74824132D01*
X50679366Y-74805719D01*
X50692154Y-74788476D01*
X50706570Y-74772570D01*
X50722476Y-74758154D01*
X50739719Y-74745366D01*
X50758132Y-74734330D01*
X50777538Y-74725151D01*
X50797750Y-74717919D01*
X50818574Y-74712703D01*
X50839809Y-74709553D01*
X50861250Y-74708500D01*
X51373750Y-74708500D01*
X51395191Y-74709553D01*
X51395191Y-74709553D01*
G37*
D13*
X51117500Y-75146000D03*
D12*
G36*
X51395191Y-73134553D02*
G01*
X51416426Y-73137703D01*
X51437250Y-73142919D01*
X51457462Y-73150151D01*
X51476868Y-73159330D01*
X51495281Y-73170366D01*
X51512524Y-73183154D01*
X51528430Y-73197570D01*
X51542846Y-73213476D01*
X51555634Y-73230719D01*
X51566670Y-73249132D01*
X51575849Y-73268538D01*
X51583081Y-73288750D01*
X51588297Y-73309574D01*
X51591447Y-73330809D01*
X51592500Y-73352250D01*
X51592500Y-73789750D01*
X51591447Y-73811191D01*
X51588297Y-73832426D01*
X51583081Y-73853250D01*
X51575849Y-73873462D01*
X51566670Y-73892868D01*
X51555634Y-73911281D01*
X51542846Y-73928524D01*
X51528430Y-73944430D01*
X51512524Y-73958846D01*
X51495281Y-73971634D01*
X51476868Y-73982670D01*
X51457462Y-73991849D01*
X51437250Y-73999081D01*
X51416426Y-74004297D01*
X51395191Y-74007447D01*
X51373750Y-74008500D01*
X50861250Y-74008500D01*
X50839809Y-74007447D01*
X50818574Y-74004297D01*
X50797750Y-73999081D01*
X50777538Y-73991849D01*
X50758132Y-73982670D01*
X50739719Y-73971634D01*
X50722476Y-73958846D01*
X50706570Y-73944430D01*
X50692154Y-73928524D01*
X50679366Y-73911281D01*
X50668330Y-73892868D01*
X50659151Y-73873462D01*
X50651919Y-73853250D01*
X50646703Y-73832426D01*
X50643553Y-73811191D01*
X50642500Y-73789750D01*
X50642500Y-73352250D01*
X50643553Y-73330809D01*
X50646703Y-73309574D01*
X50651919Y-73288750D01*
X50659151Y-73268538D01*
X50668330Y-73249132D01*
X50679366Y-73230719D01*
X50692154Y-73213476D01*
X50706570Y-73197570D01*
X50722476Y-73183154D01*
X50739719Y-73170366D01*
X50758132Y-73159330D01*
X50777538Y-73150151D01*
X50797750Y-73142919D01*
X50818574Y-73137703D01*
X50839809Y-73134553D01*
X50861250Y-73133500D01*
X51373750Y-73133500D01*
X51395191Y-73134553D01*
X51395191Y-73134553D01*
G37*
D13*
X51117500Y-73571000D03*
D12*
G36*
X49934691Y-70086553D02*
G01*
X49955926Y-70089703D01*
X49976750Y-70094919D01*
X49996962Y-70102151D01*
X50016368Y-70111330D01*
X50034781Y-70122366D01*
X50052024Y-70135154D01*
X50067930Y-70149570D01*
X50082346Y-70165476D01*
X50095134Y-70182719D01*
X50106170Y-70201132D01*
X50115349Y-70220538D01*
X50122581Y-70240750D01*
X50127797Y-70261574D01*
X50130947Y-70282809D01*
X50132000Y-70304250D01*
X50132000Y-70741750D01*
X50130947Y-70763191D01*
X50127797Y-70784426D01*
X50122581Y-70805250D01*
X50115349Y-70825462D01*
X50106170Y-70844868D01*
X50095134Y-70863281D01*
X50082346Y-70880524D01*
X50067930Y-70896430D01*
X50052024Y-70910846D01*
X50034781Y-70923634D01*
X50016368Y-70934670D01*
X49996962Y-70943849D01*
X49976750Y-70951081D01*
X49955926Y-70956297D01*
X49934691Y-70959447D01*
X49913250Y-70960500D01*
X49400750Y-70960500D01*
X49379309Y-70959447D01*
X49358074Y-70956297D01*
X49337250Y-70951081D01*
X49317038Y-70943849D01*
X49297632Y-70934670D01*
X49279219Y-70923634D01*
X49261976Y-70910846D01*
X49246070Y-70896430D01*
X49231654Y-70880524D01*
X49218866Y-70863281D01*
X49207830Y-70844868D01*
X49198651Y-70825462D01*
X49191419Y-70805250D01*
X49186203Y-70784426D01*
X49183053Y-70763191D01*
X49182000Y-70741750D01*
X49182000Y-70304250D01*
X49183053Y-70282809D01*
X49186203Y-70261574D01*
X49191419Y-70240750D01*
X49198651Y-70220538D01*
X49207830Y-70201132D01*
X49218866Y-70182719D01*
X49231654Y-70165476D01*
X49246070Y-70149570D01*
X49261976Y-70135154D01*
X49279219Y-70122366D01*
X49297632Y-70111330D01*
X49317038Y-70102151D01*
X49337250Y-70094919D01*
X49358074Y-70089703D01*
X49379309Y-70086553D01*
X49400750Y-70085500D01*
X49913250Y-70085500D01*
X49934691Y-70086553D01*
X49934691Y-70086553D01*
G37*
D13*
X49657000Y-70523000D03*
D12*
G36*
X49934691Y-71661553D02*
G01*
X49955926Y-71664703D01*
X49976750Y-71669919D01*
X49996962Y-71677151D01*
X50016368Y-71686330D01*
X50034781Y-71697366D01*
X50052024Y-71710154D01*
X50067930Y-71724570D01*
X50082346Y-71740476D01*
X50095134Y-71757719D01*
X50106170Y-71776132D01*
X50115349Y-71795538D01*
X50122581Y-71815750D01*
X50127797Y-71836574D01*
X50130947Y-71857809D01*
X50132000Y-71879250D01*
X50132000Y-72316750D01*
X50130947Y-72338191D01*
X50127797Y-72359426D01*
X50122581Y-72380250D01*
X50115349Y-72400462D01*
X50106170Y-72419868D01*
X50095134Y-72438281D01*
X50082346Y-72455524D01*
X50067930Y-72471430D01*
X50052024Y-72485846D01*
X50034781Y-72498634D01*
X50016368Y-72509670D01*
X49996962Y-72518849D01*
X49976750Y-72526081D01*
X49955926Y-72531297D01*
X49934691Y-72534447D01*
X49913250Y-72535500D01*
X49400750Y-72535500D01*
X49379309Y-72534447D01*
X49358074Y-72531297D01*
X49337250Y-72526081D01*
X49317038Y-72518849D01*
X49297632Y-72509670D01*
X49279219Y-72498634D01*
X49261976Y-72485846D01*
X49246070Y-72471430D01*
X49231654Y-72455524D01*
X49218866Y-72438281D01*
X49207830Y-72419868D01*
X49198651Y-72400462D01*
X49191419Y-72380250D01*
X49186203Y-72359426D01*
X49183053Y-72338191D01*
X49182000Y-72316750D01*
X49182000Y-71879250D01*
X49183053Y-71857809D01*
X49186203Y-71836574D01*
X49191419Y-71815750D01*
X49198651Y-71795538D01*
X49207830Y-71776132D01*
X49218866Y-71757719D01*
X49231654Y-71740476D01*
X49246070Y-71724570D01*
X49261976Y-71710154D01*
X49279219Y-71697366D01*
X49297632Y-71686330D01*
X49317038Y-71677151D01*
X49337250Y-71669919D01*
X49358074Y-71664703D01*
X49379309Y-71661553D01*
X49400750Y-71660500D01*
X49913250Y-71660500D01*
X49934691Y-71661553D01*
X49934691Y-71661553D01*
G37*
D13*
X49657000Y-72098000D03*
D18*
X57213500Y-67437000D03*
X49466500Y-75247500D03*
X47561500Y-73914000D03*
X40513000Y-75184000D03*
X40386000Y-67246500D03*
X49466500Y-67183000D03*
X51752500Y-67183000D03*
X51117500Y-69659500D03*
X49847500Y-73596500D03*
X52387500Y-73787000D03*
X57150000Y-74231413D03*
X57150000Y-73215494D03*
X57657998Y-70357944D03*
X56962341Y-68767651D03*
D19*
X56647815Y-67437000D02*
X57213500Y-67437000D01*
X54846000Y-67437000D02*
X56647815Y-67437000D01*
X52372500Y-69910500D02*
X54846000Y-67437000D01*
X52372500Y-70310500D02*
X52372500Y-69910500D01*
X49847500Y-73596500D02*
X50076000Y-73596500D01*
X52552500Y-75006000D02*
X51117500Y-73571000D01*
X52552500Y-75120500D02*
X52552500Y-75006000D01*
X49873000Y-73571000D02*
X49847500Y-73596500D01*
X51117500Y-73571000D02*
X49873000Y-73571000D01*
X51727500Y-71810500D02*
X52372500Y-71810500D01*
X51117500Y-72420500D02*
X51727500Y-71810500D01*
X51117500Y-73571000D02*
X51117500Y-72420500D01*
X53014112Y-75582112D02*
X52552500Y-75120500D01*
X53664482Y-75872910D02*
X53304910Y-75872910D01*
X53691882Y-75900310D02*
X53664482Y-75872910D01*
X54563118Y-75900310D02*
X53691882Y-75900310D01*
X53304910Y-75872910D02*
X53014112Y-75582112D01*
X59892300Y-68785500D02*
X59939901Y-68833101D01*
X58737500Y-68785500D02*
X59892300Y-68785500D01*
X59939901Y-74442653D02*
X58509644Y-75872910D01*
X58509644Y-75872910D02*
X54590518Y-75872910D01*
X59939901Y-68833101D02*
X59939901Y-74442653D01*
X54590518Y-75872910D02*
X54563118Y-75900310D01*
D20*
X44386500Y-68810500D02*
X44426500Y-68810500D01*
X46099000Y-70523000D02*
X44386500Y-68810500D01*
X49657000Y-70523000D02*
X46099000Y-70523000D01*
X50427000Y-70810500D02*
X52372500Y-70810500D01*
X49657000Y-70523000D02*
X50139500Y-70523000D01*
X50139500Y-70523000D02*
X50427000Y-70810500D01*
X46099000Y-72098000D02*
X44386500Y-73810500D01*
X49657000Y-72098000D02*
X46099000Y-72098000D01*
X50444500Y-71310500D02*
X49657000Y-72098000D01*
X52372500Y-71310500D02*
X50444500Y-71310500D01*
X57887501Y-74715499D02*
X58737500Y-73865500D01*
X57694186Y-74908814D02*
X57887501Y-74715499D01*
X54876686Y-74908814D02*
X57694186Y-74908814D01*
X54665000Y-75120500D02*
X54876686Y-74908814D01*
X54127500Y-75120500D02*
X54665000Y-75120500D01*
X54127500Y-74545500D02*
X54127500Y-75120500D01*
X54127500Y-74465500D02*
X54127500Y-74545500D01*
X52372500Y-72710500D02*
X54127500Y-74465500D01*
X52372500Y-72310500D02*
X52372500Y-72710500D01*
X54127500Y-75120500D02*
X52794000Y-73787000D01*
X52794000Y-73787000D02*
X52387500Y-73787000D01*
X56584315Y-74231413D02*
X57150000Y-74231413D01*
X56212500Y-73859598D02*
X56584315Y-74231413D01*
X56212500Y-72310500D02*
X56212500Y-73859598D01*
X57150000Y-72649809D02*
X57150000Y-73215494D01*
X56709945Y-71810500D02*
X57150000Y-72250555D01*
X56212500Y-71810500D02*
X56709945Y-71810500D01*
X57150000Y-72250555D02*
X57150000Y-72649809D01*
X56212500Y-71310500D02*
X56857500Y-71310500D01*
X56857500Y-71310500D02*
X57657998Y-70510002D01*
X57657998Y-70510002D02*
X57657998Y-70357944D01*
X56212500Y-70810500D02*
X56756822Y-70810500D01*
X56756822Y-70810500D02*
X56962341Y-70604981D01*
X56962341Y-70604981D02*
X56962341Y-69333336D01*
X56962341Y-69333336D02*
X56962341Y-68767651D01*
D21*
G36*
X59919000Y-67392672D02*
G01*
X59831680Y-67345998D01*
X59711982Y-67309688D01*
X59587500Y-67297428D01*
X57887500Y-67297428D01*
X57763018Y-67309688D01*
X57643320Y-67345998D01*
X57533006Y-67404963D01*
X57436315Y-67484315D01*
X57356963Y-67581006D01*
X57297998Y-67691320D01*
X57272373Y-67775794D01*
X57264239Y-67772425D01*
X57064280Y-67732651D01*
X56860402Y-67732651D01*
X56660443Y-67772425D01*
X56472085Y-67850446D01*
X56302567Y-67963714D01*
X56158404Y-68107877D01*
X56045136Y-68277395D01*
X55967115Y-68465753D01*
X55927341Y-68665712D01*
X55927341Y-68869590D01*
X55967115Y-69069549D01*
X56045136Y-69257907D01*
X56158404Y-69427425D01*
X56202342Y-69471363D01*
X56202342Y-69522428D01*
X55817500Y-69522428D01*
X55705000Y-69533508D01*
X55592500Y-69522428D01*
X52992500Y-69522428D01*
X52882334Y-69533278D01*
X52878011Y-69532071D01*
X52753287Y-69522586D01*
X52658250Y-69525500D01*
X52499500Y-69684250D01*
X52499500Y-69760267D01*
X52461963Y-69806006D01*
X52402998Y-69916320D01*
X52370810Y-70022428D01*
X52245500Y-70022428D01*
X52245500Y-69684250D01*
X52086750Y-69525500D01*
X51991713Y-69522586D01*
X51866989Y-69532071D01*
X51746512Y-69565705D01*
X51634912Y-69622198D01*
X51536477Y-69699377D01*
X51454991Y-69794276D01*
X51393584Y-69903250D01*
X51354617Y-70022109D01*
X51351391Y-70050500D01*
X50741801Y-70050500D01*
X50721044Y-70029743D01*
X50704850Y-69976358D01*
X50625671Y-69828225D01*
X50519115Y-69698385D01*
X50389275Y-69591829D01*
X50241142Y-69512650D01*
X50080408Y-69463892D01*
X49913250Y-69447428D01*
X49400750Y-69447428D01*
X49233592Y-69463892D01*
X49072858Y-69512650D01*
X48924725Y-69591829D01*
X48794885Y-69698385D01*
X48741857Y-69763000D01*
X46413802Y-69763000D01*
X46324572Y-69673770D01*
X46324572Y-67510500D01*
X46312312Y-67386018D01*
X46276002Y-67266320D01*
X46217037Y-67156006D01*
X46137685Y-67059315D01*
X46040994Y-66979963D01*
X45930680Y-66920998D01*
X45810982Y-66884688D01*
X45686500Y-66872428D01*
X43086500Y-66872428D01*
X42962018Y-66884688D01*
X42842320Y-66920998D01*
X42732006Y-66979963D01*
X42635315Y-67059315D01*
X42555963Y-67156006D01*
X42496998Y-67266320D01*
X42460688Y-67386018D01*
X42448428Y-67510500D01*
X42448428Y-70110500D01*
X42460688Y-70234982D01*
X42496998Y-70354680D01*
X42555963Y-70464994D01*
X42635315Y-70561685D01*
X42732006Y-70641037D01*
X42842320Y-70700002D01*
X42962018Y-70736312D01*
X43086500Y-70748572D01*
X45249770Y-70748572D01*
X45535200Y-71034002D01*
X45558999Y-71063001D01*
X45674724Y-71157974D01*
X45806753Y-71228546D01*
X45950014Y-71272003D01*
X46061667Y-71283000D01*
X46061675Y-71283000D01*
X46099000Y-71286676D01*
X46136325Y-71283000D01*
X48741857Y-71283000D01*
X48764426Y-71310500D01*
X48741857Y-71338000D01*
X46136325Y-71338000D01*
X46099000Y-71334324D01*
X46061675Y-71338000D01*
X46061667Y-71338000D01*
X45950014Y-71348997D01*
X45806753Y-71392454D01*
X45674724Y-71463026D01*
X45558999Y-71557999D01*
X45535201Y-71586997D01*
X45107485Y-72014713D01*
X44950919Y-71949861D01*
X44577081Y-71875500D01*
X44195919Y-71875500D01*
X43822081Y-71949861D01*
X43469934Y-72095725D01*
X43153009Y-72307487D01*
X42883487Y-72577009D01*
X42671725Y-72893934D01*
X42525861Y-73246081D01*
X42451500Y-73619919D01*
X42451500Y-74001081D01*
X42525861Y-74374919D01*
X42671725Y-74727066D01*
X42883487Y-75043991D01*
X43153009Y-75313513D01*
X43469934Y-75525275D01*
X43822081Y-75671139D01*
X44195919Y-75745500D01*
X44577081Y-75745500D01*
X44950919Y-75671139D01*
X45303066Y-75525275D01*
X45619991Y-75313513D01*
X45889513Y-75043991D01*
X46101275Y-74727066D01*
X46247139Y-74374919D01*
X46321500Y-74001081D01*
X46321500Y-73619919D01*
X46247139Y-73246081D01*
X46182287Y-73089515D01*
X46413802Y-72858000D01*
X48741857Y-72858000D01*
X48794885Y-72922615D01*
X48924725Y-73029171D01*
X48966775Y-73051647D01*
X48930295Y-73106244D01*
X48852274Y-73294602D01*
X48812500Y-73494561D01*
X48812500Y-73698439D01*
X48852274Y-73898398D01*
X48930295Y-74086756D01*
X49043563Y-74256274D01*
X49187726Y-74400437D01*
X49357244Y-74513705D01*
X49545602Y-74591726D01*
X49745561Y-74631500D01*
X49949439Y-74631500D01*
X50013262Y-74618805D01*
X50004428Y-74708500D01*
X50007500Y-74860250D01*
X50166250Y-75019000D01*
X50990500Y-75019000D01*
X50990500Y-74999000D01*
X51244500Y-74999000D01*
X51244500Y-75019000D01*
X51264500Y-75019000D01*
X51264500Y-75273000D01*
X51244500Y-75273000D01*
X51244500Y-75293000D01*
X50990500Y-75293000D01*
X50990500Y-75273000D01*
X50166250Y-75273000D01*
X50007500Y-75431750D01*
X50004428Y-75583500D01*
X50016688Y-75707982D01*
X50042781Y-75794000D01*
X39903000Y-75794000D01*
X39903000Y-66827000D01*
X59919000Y-66827000D01*
X59919000Y-67392672D01*
X59919000Y-67392672D01*
G37*
X59919000Y-67392672D02*
X59831680Y-67345998D01*
X59711982Y-67309688D01*
X59587500Y-67297428D01*
X57887500Y-67297428D01*
X57763018Y-67309688D01*
X57643320Y-67345998D01*
X57533006Y-67404963D01*
X57436315Y-67484315D01*
X57356963Y-67581006D01*
X57297998Y-67691320D01*
X57272373Y-67775794D01*
X57264239Y-67772425D01*
X57064280Y-67732651D01*
X56860402Y-67732651D01*
X56660443Y-67772425D01*
X56472085Y-67850446D01*
X56302567Y-67963714D01*
X56158404Y-68107877D01*
X56045136Y-68277395D01*
X55967115Y-68465753D01*
X55927341Y-68665712D01*
X55927341Y-68869590D01*
X55967115Y-69069549D01*
X56045136Y-69257907D01*
X56158404Y-69427425D01*
X56202342Y-69471363D01*
X56202342Y-69522428D01*
X55817500Y-69522428D01*
X55705000Y-69533508D01*
X55592500Y-69522428D01*
X52992500Y-69522428D01*
X52882334Y-69533278D01*
X52878011Y-69532071D01*
X52753287Y-69522586D01*
X52658250Y-69525500D01*
X52499500Y-69684250D01*
X52499500Y-69760267D01*
X52461963Y-69806006D01*
X52402998Y-69916320D01*
X52370810Y-70022428D01*
X52245500Y-70022428D01*
X52245500Y-69684250D01*
X52086750Y-69525500D01*
X51991713Y-69522586D01*
X51866989Y-69532071D01*
X51746512Y-69565705D01*
X51634912Y-69622198D01*
X51536477Y-69699377D01*
X51454991Y-69794276D01*
X51393584Y-69903250D01*
X51354617Y-70022109D01*
X51351391Y-70050500D01*
X50741801Y-70050500D01*
X50721044Y-70029743D01*
X50704850Y-69976358D01*
X50625671Y-69828225D01*
X50519115Y-69698385D01*
X50389275Y-69591829D01*
X50241142Y-69512650D01*
X50080408Y-69463892D01*
X49913250Y-69447428D01*
X49400750Y-69447428D01*
X49233592Y-69463892D01*
X49072858Y-69512650D01*
X48924725Y-69591829D01*
X48794885Y-69698385D01*
X48741857Y-69763000D01*
X46413802Y-69763000D01*
X46324572Y-69673770D01*
X46324572Y-67510500D01*
X46312312Y-67386018D01*
X46276002Y-67266320D01*
X46217037Y-67156006D01*
X46137685Y-67059315D01*
X46040994Y-66979963D01*
X45930680Y-66920998D01*
X45810982Y-66884688D01*
X45686500Y-66872428D01*
X43086500Y-66872428D01*
X42962018Y-66884688D01*
X42842320Y-66920998D01*
X42732006Y-66979963D01*
X42635315Y-67059315D01*
X42555963Y-67156006D01*
X42496998Y-67266320D01*
X42460688Y-67386018D01*
X42448428Y-67510500D01*
X42448428Y-70110500D01*
X42460688Y-70234982D01*
X42496998Y-70354680D01*
X42555963Y-70464994D01*
X42635315Y-70561685D01*
X42732006Y-70641037D01*
X42842320Y-70700002D01*
X42962018Y-70736312D01*
X43086500Y-70748572D01*
X45249770Y-70748572D01*
X45535200Y-71034002D01*
X45558999Y-71063001D01*
X45674724Y-71157974D01*
X45806753Y-71228546D01*
X45950014Y-71272003D01*
X46061667Y-71283000D01*
X46061675Y-71283000D01*
X46099000Y-71286676D01*
X46136325Y-71283000D01*
X48741857Y-71283000D01*
X48764426Y-71310500D01*
X48741857Y-71338000D01*
X46136325Y-71338000D01*
X46099000Y-71334324D01*
X46061675Y-71338000D01*
X46061667Y-71338000D01*
X45950014Y-71348997D01*
X45806753Y-71392454D01*
X45674724Y-71463026D01*
X45558999Y-71557999D01*
X45535201Y-71586997D01*
X45107485Y-72014713D01*
X44950919Y-71949861D01*
X44577081Y-71875500D01*
X44195919Y-71875500D01*
X43822081Y-71949861D01*
X43469934Y-72095725D01*
X43153009Y-72307487D01*
X42883487Y-72577009D01*
X42671725Y-72893934D01*
X42525861Y-73246081D01*
X42451500Y-73619919D01*
X42451500Y-74001081D01*
X42525861Y-74374919D01*
X42671725Y-74727066D01*
X42883487Y-75043991D01*
X43153009Y-75313513D01*
X43469934Y-75525275D01*
X43822081Y-75671139D01*
X44195919Y-75745500D01*
X44577081Y-75745500D01*
X44950919Y-75671139D01*
X45303066Y-75525275D01*
X45619991Y-75313513D01*
X45889513Y-75043991D01*
X46101275Y-74727066D01*
X46247139Y-74374919D01*
X46321500Y-74001081D01*
X46321500Y-73619919D01*
X46247139Y-73246081D01*
X46182287Y-73089515D01*
X46413802Y-72858000D01*
X48741857Y-72858000D01*
X48794885Y-72922615D01*
X48924725Y-73029171D01*
X48966775Y-73051647D01*
X48930295Y-73106244D01*
X48852274Y-73294602D01*
X48812500Y-73494561D01*
X48812500Y-73698439D01*
X48852274Y-73898398D01*
X48930295Y-74086756D01*
X49043563Y-74256274D01*
X49187726Y-74400437D01*
X49357244Y-74513705D01*
X49545602Y-74591726D01*
X49745561Y-74631500D01*
X49949439Y-74631500D01*
X50013262Y-74618805D01*
X50004428Y-74708500D01*
X50007500Y-74860250D01*
X50166250Y-75019000D01*
X50990500Y-75019000D01*
X50990500Y-74999000D01*
X51244500Y-74999000D01*
X51244500Y-75019000D01*
X51264500Y-75019000D01*
X51264500Y-75273000D01*
X51244500Y-75273000D01*
X51244500Y-75293000D01*
X50990500Y-75293000D01*
X50990500Y-75273000D01*
X50166250Y-75273000D01*
X50007500Y-75431750D01*
X50004428Y-75583500D01*
X50016688Y-75707982D01*
X50042781Y-75794000D01*
X39903000Y-75794000D01*
X39903000Y-66827000D01*
X59919000Y-66827000D01*
X59919000Y-67392672D01*
G36*
X58864500Y-71198500D02*
G01*
X58884500Y-71198500D01*
X58884500Y-71452500D01*
X58864500Y-71452500D01*
X58864500Y-71472500D01*
X58610500Y-71472500D01*
X58610500Y-71452500D01*
X58590500Y-71452500D01*
X58590500Y-71198500D01*
X58610500Y-71198500D01*
X58610500Y-71178500D01*
X58864500Y-71178500D01*
X58864500Y-71198500D01*
X58864500Y-71198500D01*
G37*
X58864500Y-71198500D02*
X58884500Y-71198500D01*
X58884500Y-71452500D01*
X58864500Y-71452500D01*
X58864500Y-71472500D01*
X58610500Y-71472500D01*
X58610500Y-71452500D01*
X58590500Y-71452500D01*
X58590500Y-71198500D01*
X58610500Y-71198500D01*
X58610500Y-71178500D01*
X58864500Y-71178500D01*
X58864500Y-71198500D01*
M02*
